<?xml version="1.0" encoding="UTF-8"?>
<svg id="Layer_2" data-name="Layer 2" xmlns="http://www.w3.org/2000/svg" xmlns:xlink="http://www.w3.org/1999/xlink" viewBox="0 0 2200 1466">
  <defs>
    <style>
      .cls-1 {
        fill: none;
      }

      .cls-2 {
        fill: #599b7b;
        opacity: .5;
      }

      .cls-3 {
        fill: #8aceb7;
      }

      .cls-4 {
        clip-path: url(#clippath);
      }
    </style>
    <clipPath id="clippath">
      <rect class="cls-1" width="2200" height="1466"/>
    </clipPath>
  </defs>
  <g id="background">
    <g class="cls-4">
      <path class="cls-2" d="M2366.14-230.07v-5.16h-297.91v-297.91h-5.16V-235.23h-170.41v-297.91h-5.16V-235.23h-170.41v-297.91h-5.16V-235.23h-170.41v-297.91h-5.16V-235.23h-170.41v-297.91h-5.16V-235.23h-170.41v-297.91h-5.16V-235.23h-170.41v-297.91h-5.16V-235.23h-170.41v-297.91h-5.16V-235.23h-170.41v-297.91h-5.16V-235.23h-170.41v-297.91h-5.16V-235.23h-170.41v-297.91h-5.16V-235.23h-170.41v-297.91h-5.16V-235.23H-166.14v5.16H131.77V-59.66H-166.14v5.16H131.77V115.91H-166.14v5.16H131.77v170.41H-166.14v5.16H131.77v170.41H-166.14v5.16H131.77v170.41H-166.14v5.16H131.77v170.41H-166.14v5.16H131.77v170.41H-166.14v5.16H131.77v170.41H-166.14v5.16H131.77v170.41H-166.14v5.16H131.77v170.41H-166.14v5.16H131.77v170.41H-166.14v5.16H131.77v297.91h5.16v-297.91h170.41v297.91h5.16v-297.91h170.41v297.91h5.16v-297.91h170.41v297.91h5.16v-297.91h170.41v297.91h5.16v-297.91h170.41v297.91h5.16v-297.91h170.41v297.91h5.16v-297.91h170.41v297.91h5.16v-297.91h170.41v297.91h5.16v-297.91h170.41v297.91h5.16v-297.91h170.41v297.91h5.16v-297.91h170.41v297.91h5.16v-297.91h297.91v-5.16h-297.91v-170.41h297.91v-5.16h-297.91v-170.41h297.91v-5.16h-297.91v-170.41h297.91v-5.16h-297.91v-170.41h297.91v-5.16h-297.91v-170.41h297.91v-5.16h-297.91v-170.41h297.91v-5.16h-297.91v-170.41h297.91v-5.16h-297.91v-170.41h297.91v-5.16h-297.91V121.08h297.91v-5.16h-297.91V-54.5h297.91v-5.16h-297.91v-170.41h297.91ZM1887.5-230.07V-59.66h-170.41v-170.41h170.41ZM1014.79,642.63v-170.41h170.41v170.41h-170.41ZM1185.21,647.79v170.41h-170.41v-170.41h170.41ZM1009.63,642.63h-170.41v-170.41h170.41v170.41ZM1009.63,647.79v170.41h-170.41v-170.41h170.41ZM1009.63,823.37v170.41h-170.41v-170.41h170.41ZM1014.79,823.37h170.41v170.41h-170.41v-170.41ZM1190.37,823.37h170.41v170.41h-170.41v-170.41ZM1190.37,818.21v-170.41h170.41v170.41h-170.41ZM1190.37,642.63v-170.41h170.41v170.41h-170.41ZM1190.37,467.06v-170.41h170.41v170.41h-170.41ZM1185.21,467.06h-170.41v-170.41h170.41v170.41ZM1009.63,467.06h-170.41v-170.41h170.41v170.41ZM834.06,467.06h-170.41v-170.41h170.41v170.41ZM834.06,472.22v170.41h-170.41v-170.41h170.41ZM834.06,647.79v170.41h-170.41v-170.41h170.41ZM834.06,823.37v170.41h-170.41v-170.41h170.41ZM834.06,998.94v170.41h-170.41v-170.41h170.41ZM839.22,998.94h170.41v170.41h-170.41v-170.41ZM1014.79,998.94h170.41v170.41h-170.41v-170.41ZM1190.37,998.94h170.41v170.41h-170.41v-170.41ZM1365.94,998.94h170.41v170.41h-170.41v-170.41ZM1365.94,993.78v-170.41h170.41v170.41h-170.41ZM1365.94,818.21v-170.41h170.41v170.41h-170.41ZM1365.94,642.63v-170.41h170.41v170.41h-170.41ZM1365.94,467.06v-170.41h170.41v170.41h-170.41ZM1365.94,291.49V121.08h170.41v170.41h-170.41ZM1360.78,291.49h-170.41V121.08h170.41v170.41ZM1185.21,291.49h-170.41V121.08h170.41v170.41ZM1009.63,291.49h-170.41V121.08h170.41v170.41ZM834.06,291.49h-170.41V121.08h170.41v170.41ZM658.49,291.49h-170.41V121.08h170.41v170.41ZM658.49,296.65v170.41h-170.41v-170.41h170.41ZM658.49,472.22v170.41h-170.41v-170.41h170.41ZM658.49,647.79v170.41h-170.41v-170.41h170.41ZM658.49,823.37v170.41h-170.41v-170.41h170.41ZM658.49,998.94v170.41h-170.41v-170.41h170.41ZM658.49,1174.51v170.41h-170.41v-170.41h170.41ZM663.65,1174.51h170.41v170.41h-170.41v-170.41ZM839.22,1174.51h170.41v170.41h-170.41v-170.41ZM1014.79,1174.51h170.41v170.41h-170.41v-170.41ZM1190.37,1174.51h170.41v170.41h-170.41v-170.41ZM1365.94,1174.51h170.41v170.41h-170.41v-170.41ZM1541.51,1174.51h170.41v170.41h-170.41v-170.41ZM1541.51,1169.35v-170.41h170.41v170.41h-170.41ZM1541.51,993.78v-170.41h170.41v170.41h-170.41ZM1541.51,818.21v-170.41h170.41v170.41h-170.41ZM1541.51,642.63v-170.41h170.41v170.41h-170.41ZM1541.51,467.06v-170.41h170.41v170.41h-170.41ZM1541.51,291.49V121.08h170.41v170.41h-170.41ZM1541.51,115.91V-54.5h170.41V115.91h-170.41ZM1536.35,115.91h-170.41V-54.5h170.41V115.91ZM1360.78,115.91h-170.41V-54.5h170.41V115.91ZM1185.21,115.91h-170.41V-54.5h170.41V115.91ZM1009.63,115.91h-170.41V-54.5h170.41V115.91ZM834.06,115.91h-170.41V-54.5h170.41V115.91ZM658.49,115.91h-170.41V-54.5h170.41V115.91ZM482.92,115.91h-170.41V-54.5h170.41V115.91ZM482.92,121.08v170.41h-170.41V121.08h170.41ZM482.92,296.65v170.41h-170.41v-170.41h170.41ZM482.92,472.22v170.41h-170.41v-170.41h170.41ZM482.92,647.79v170.41h-170.41v-170.41h170.41ZM482.92,823.37v170.41h-170.41v-170.41h170.41ZM482.92,998.94v170.41h-170.41v-170.41h170.41ZM482.92,1174.51v170.41h-170.41v-170.41h170.41ZM482.92,1350.08v170.41h-170.41v-170.41h170.41ZM488.08,1350.08h170.41v170.41h-170.41v-170.41ZM663.65,1350.08h170.41v170.41h-170.41v-170.41ZM839.22,1350.08h170.41v170.41h-170.41v-170.41ZM1014.79,1350.08h170.41v170.41h-170.41v-170.41ZM1190.37,1350.08h170.41v170.41h-170.41v-170.41ZM1365.94,1350.08h170.41v170.41h-170.41v-170.41ZM1541.51,1350.08h170.41v170.41h-170.41v-170.41ZM1717.08,1350.08h170.41v170.41h-170.41v-170.41ZM1717.08,1344.92v-170.41h170.41v170.41h-170.41ZM1717.08,1169.35v-170.41h170.41v170.41h-170.41ZM1717.08,993.78v-170.41h170.41v170.41h-170.41ZM1717.08,818.21v-170.41h170.41v170.41h-170.41ZM1717.08,642.63v-170.41h170.41v170.41h-170.41ZM1717.08,467.06v-170.41h170.41v170.41h-170.41ZM1717.08,291.49V121.08h170.41v170.41h-170.41ZM1717.08,115.91V-54.5h170.41V115.91h-170.41ZM1711.92-230.07V-59.66h-170.41v-170.41h170.41ZM1536.35-230.07V-59.66h-170.41v-170.41h170.41ZM1360.78-230.07V-59.66h-170.41v-170.41h170.41ZM1185.21-230.07V-59.66h-170.41v-170.41h170.41ZM1009.63-230.07V-59.66h-170.41v-170.41h170.41ZM834.06-230.07V-59.66h-170.41v-170.41h170.41ZM658.49-230.07V-59.66h-170.41v-170.41h170.41ZM482.92-230.07V-59.66h-170.41v-170.41h170.41ZM136.93-230.07h170.41V-59.66h-170.41v-170.41ZM136.93-54.5h170.41V115.91h-170.41V-54.5ZM136.93,121.08h170.41v170.41h-170.41V121.08ZM136.93,296.65h170.41v170.41h-170.41v-170.41ZM136.93,472.22h170.41v170.41h-170.41v-170.41ZM136.93,647.79h170.41v170.41h-170.41v-170.41ZM136.93,823.37h170.41v170.41h-170.41v-170.41ZM136.93,998.94h170.41v170.41h-170.41v-170.41ZM136.93,1174.51h170.41v170.41h-170.41v-170.41ZM136.93,1350.08h170.41v170.41h-170.41v-170.41ZM136.93,1696.07v-170.41h170.41v170.41h-170.41ZM312.5,1696.07v-170.41h170.41v170.41h-170.41ZM488.08,1696.07v-170.41h170.41v170.41h-170.41ZM663.65,1696.07v-170.41h170.41v170.41h-170.41ZM839.22,1696.07v-170.41h170.41v170.41h-170.41ZM1014.79,1696.07v-170.41h170.41v170.41h-170.41ZM1190.37,1696.07v-170.41h170.41v170.41h-170.41ZM1365.94,1696.07v-170.41h170.41v170.41h-170.41ZM1541.51,1696.07v-170.41h170.41v170.41h-170.41ZM1717.08,1696.07v-170.41h170.41v170.41h-170.41ZM2063.07,1696.07h-170.41v-170.41h170.41v170.41ZM2063.07,1520.5h-170.41v-170.41h170.41v170.41ZM2063.07,1344.92h-170.41v-170.41h170.41v170.41ZM2063.07,1169.35h-170.41v-170.41h170.41v170.41ZM2063.07,993.78h-170.41v-170.41h170.41v170.41ZM2063.07,818.21h-170.41v-170.41h170.41v170.41ZM2063.07,642.63h-170.41v-170.41h170.41v170.41ZM2063.07,467.06h-170.41v-170.41h170.41v170.41ZM2063.07,291.49h-170.41V121.08h170.41v170.41ZM2063.07,115.91h-170.41V-54.5h170.41V115.91ZM2063.07-59.66h-170.41v-170.41h170.41V-59.66Z"/>
    </g>
    <path class="cls-3" d="M134.35,108.77h0c-5.37,0-9.73,4.36-9.73,9.73h0c0,5.37,4.36,9.73,9.73,9.73h0c5.37,0,9.73-4.36,9.73-9.73h0c0-5.37-4.36-9.73-9.73-9.73h0Z"/>
    <path class="cls-3" d="M309.92,108.77h0c-5.37,0-9.73,4.36-9.73,9.73h0c0,5.37,4.36,9.73,9.73,9.73h0c5.37,0,9.73-4.36,9.73-9.73h0c0-5.37-4.36-9.73-9.73-9.73h0Z"/>
    <path class="cls-3" d="M485.5,108.77h0c-5.37,0-9.73,4.36-9.73,9.73h0c0,5.37,4.36,9.73,9.73,9.73h0c5.37,0,9.73-4.36,9.73-9.73h0c0-5.37-4.36-9.73-9.73-9.73h0Z"/>
    <path class="cls-3" d="M661.07,108.77h0c-5.37,0-9.73,4.36-9.73,9.73h0c0,5.37,4.36,9.73,9.73,9.73h0c5.37,0,9.73-4.36,9.73-9.73h0c0-5.37-4.36-9.73-9.73-9.73h0Z"/>
    <path class="cls-3" d="M836.64,108.77h0c-5.37,0-9.73,4.36-9.73,9.73h0c0,5.37,4.36,9.73,9.73,9.73h0c5.37,0,9.73-4.36,9.73-9.73h0c0-5.37-4.36-9.73-9.73-9.73h0Z"/>
    <path class="cls-3" d="M1012.21,108.77h0c-5.37,0-9.73,4.36-9.73,9.73h0c0,5.37,4.36,9.73,9.73,9.73h0c5.37,0,9.73-4.36,9.73-9.73h0c0-5.37-4.36-9.73-9.73-9.73h0Z"/>
    <path class="cls-3" d="M1187.79,108.77h0c-5.37,0-9.73,4.36-9.73,9.73h0c0,5.37,4.36,9.73,9.73,9.73h0c5.37,0,9.73-4.36,9.73-9.73h0c0-5.37-4.36-9.73-9.73-9.73h0Z"/>
    <path class="cls-3" d="M1363.36,108.77h0c-5.37,0-9.73,4.36-9.73,9.73h0c0,5.37,4.36,9.73,9.73,9.73h0c5.37,0,9.73-4.36,9.73-9.73h0c0-5.37-4.36-9.73-9.73-9.73h0Z"/>
    <path class="cls-3" d="M1538.93,108.77h0c-5.37,0-9.73,4.36-9.73,9.73h0c0,5.37,4.36,9.73,9.73,9.73h0c5.37,0,9.73-4.36,9.73-9.73h0c0-5.37-4.36-9.73-9.73-9.73h0Z"/>
    <path class="cls-3" d="M1714.5,108.77h0c-5.37,0-9.73,4.36-9.73,9.73h0c0,5.37,4.36,9.73,9.73,9.73h0c5.37,0,9.73-4.36,9.73-9.73h0c0-5.37-4.36-9.73-9.73-9.73h0Z"/>
    <path class="cls-3" d="M1890.08,108.77h0c-5.37,0-9.73,4.36-9.73,9.73h0c0,5.37,4.36,9.73,9.73,9.73h0c5.37,0,9.73-4.36,9.73-9.73h0c0-5.37-4.36-9.73-9.73-9.73h0Z"/>
    <path class="cls-3" d="M2065.65,108.77h0c-5.37,0-9.73,4.36-9.73,9.73h0c0,5.37,4.36,9.73,9.73,9.73h0c5.37,0,9.73-4.36,9.73-9.73h0c0-5.37-4.36-9.73-9.73-9.73h0Z"/>
    <path class="cls-3" d="M134.35,284.34h0c-5.37,0-9.73,4.36-9.73,9.73h0c0,5.37,4.36,9.73,9.73,9.73h0c5.37,0,9.73-4.36,9.73-9.73h0c0-5.37-4.36-9.73-9.73-9.73h0Z"/>
    <path class="cls-3" d="M309.92,284.34h0c-5.37,0-9.73,4.36-9.73,9.73h0c0,5.37,4.36,9.73,9.73,9.73h0c5.37,0,9.73-4.36,9.73-9.73h0c0-5.37-4.36-9.73-9.73-9.73h0Z"/>
    <path class="cls-3" d="M485.5,284.34h0c-5.37,0-9.73,4.36-9.73,9.73h0c0,5.37,4.36,9.73,9.73,9.73h0c5.37,0,9.73-4.36,9.73-9.73h0c0-5.37-4.36-9.73-9.73-9.73h0Z"/>
    <path class="cls-3" d="M661.07,284.34h0c-5.37,0-9.73,4.36-9.73,9.73h0c0,5.37,4.36,9.73,9.73,9.73h0c5.37,0,9.73-4.36,9.73-9.73h0c0-5.37-4.36-9.73-9.73-9.73h0Z"/>
    <path class="cls-3" d="M836.64,284.34h0c-5.37,0-9.73,4.36-9.73,9.73h0c0,5.37,4.36,9.73,9.73,9.73h0c5.37,0,9.73-4.36,9.73-9.73h0c0-5.37-4.36-9.73-9.73-9.73h0Z"/>
    <path class="cls-3" d="M1012.21,284.34h0c-5.37,0-9.73,4.36-9.73,9.73h0c0,5.37,4.36,9.73,9.73,9.73h0c5.37,0,9.73-4.36,9.73-9.73h0c0-5.37-4.36-9.73-9.73-9.73h0Z"/>
    <path class="cls-3" d="M1187.79,284.34h0c-5.37,0-9.73,4.36-9.73,9.73h0c0,5.37,4.36,9.73,9.73,9.73h0c5.37,0,9.73-4.36,9.73-9.73h0c0-5.37-4.36-9.73-9.73-9.73h0Z"/>
    <path class="cls-3" d="M1363.36,284.34h0c-5.37,0-9.73,4.36-9.73,9.73h0c0,5.37,4.36,9.73,9.73,9.73h0c5.37,0,9.73-4.36,9.73-9.73h0c0-5.37-4.36-9.73-9.73-9.73h0Z"/>
    <path class="cls-3" d="M1538.93,284.34h0c-5.37,0-9.73,4.36-9.73,9.73h0c0,5.37,4.36,9.73,9.73,9.73h0c5.37,0,9.73-4.36,9.73-9.73h0c0-5.37-4.36-9.73-9.73-9.73h0Z"/>
    <path class="cls-3" d="M1714.5,284.34h0c-5.37,0-9.73,4.36-9.73,9.73h0c0,5.37,4.36,9.73,9.73,9.73h0c5.37,0,9.73-4.36,9.73-9.73h0c0-5.37-4.36-9.73-9.73-9.73h0Z"/>
    <path class="cls-3" d="M1890.08,284.34h0c-5.37,0-9.73,4.36-9.73,9.73h0c0,5.37,4.36,9.73,9.73,9.73h0c5.37,0,9.73-4.36,9.73-9.73h0c0-5.37-4.36-9.73-9.73-9.73h0Z"/>
    <path class="cls-3" d="M2065.65,284.34h0c-5.37,0-9.73,4.36-9.73,9.73h0c0,5.37,4.36,9.73,9.73,9.73h0c5.37,0,9.73-4.36,9.73-9.73h0c0-5.37-4.36-9.73-9.73-9.73h0Z"/>
    <path class="cls-3" d="M134.35,459.91h0c-5.37,0-9.73,4.36-9.73,9.73h0c0,5.37,4.36,9.73,9.73,9.73h0c5.37,0,9.73-4.36,9.73-9.73h0c0-5.37-4.36-9.73-9.73-9.73h0Z"/>
    <path class="cls-3" d="M309.92,459.91h0c-5.37,0-9.73,4.36-9.73,9.73h0c0,5.37,4.36,9.73,9.73,9.73h0c5.37,0,9.73-4.36,9.73-9.73h0c0-5.37-4.36-9.73-9.73-9.73h0Z"/>
    <path class="cls-3" d="M485.5,459.91h0c-5.37,0-9.73,4.36-9.73,9.73h0c0,5.37,4.36,9.73,9.73,9.73h0c5.37,0,9.73-4.36,9.73-9.73h0c0-5.37-4.36-9.73-9.73-9.73h0Z"/>
    <path class="cls-3" d="M661.07,459.91h0c-5.37,0-9.73,4.36-9.73,9.73h0c0,5.37,4.36,9.73,9.73,9.73h0c5.37,0,9.73-4.36,9.73-9.73h0c0-5.37-4.36-9.73-9.73-9.73h0Z"/>
    <path class="cls-3" d="M836.64,459.91h0c-5.37,0-9.73,4.36-9.73,9.73h0c0,5.37,4.36,9.73,9.73,9.73h0c5.37,0,9.73-4.36,9.73-9.73h0c0-5.37-4.36-9.73-9.73-9.73h0Z"/>
    <path class="cls-3" d="M1012.21,459.91h0c-5.37,0-9.73,4.36-9.73,9.73h0c0,5.37,4.36,9.73,9.73,9.73h0c5.37,0,9.73-4.36,9.73-9.73h0c0-5.37-4.36-9.73-9.73-9.73h0Z"/>
    <path class="cls-3" d="M1187.79,459.91h0c-5.37,0-9.73,4.36-9.73,9.73h0c0,5.37,4.36,9.73,9.73,9.73h0c5.37,0,9.73-4.36,9.73-9.73h0c0-5.37-4.36-9.73-9.73-9.73h0Z"/>
    <path class="cls-3" d="M1363.36,459.91h0c-5.37,0-9.73,4.36-9.73,9.73h0c0,5.37,4.36,9.73,9.73,9.73h0c5.37,0,9.73-4.36,9.73-9.73h0c0-5.37-4.36-9.73-9.73-9.73h0Z"/>
    <path class="cls-3" d="M1538.93,459.91h0c-5.37,0-9.73,4.36-9.73,9.73h0c0,5.37,4.36,9.73,9.73,9.73h0c5.37,0,9.73-4.36,9.73-9.73h0c0-5.37-4.36-9.73-9.73-9.73h0Z"/>
    <path class="cls-3" d="M1714.5,459.91h0c-5.37,0-9.73,4.36-9.73,9.73h0c0,5.37,4.36,9.73,9.73,9.73h0c5.37,0,9.73-4.36,9.73-9.73h0c0-5.37-4.36-9.73-9.73-9.73h0Z"/>
    <path class="cls-3" d="M1890.08,459.91h0c-5.37,0-9.73,4.36-9.73,9.73h0c0,5.37,4.36,9.73,9.73,9.73h0c5.37,0,9.73-4.36,9.73-9.73h0c0-5.37-4.36-9.73-9.73-9.73h0Z"/>
    <path class="cls-3" d="M2065.65,459.91h0c-5.37,0-9.73,4.36-9.73,9.73h0c0,5.37,4.36,9.73,9.73,9.73h0c5.37,0,9.73-4.36,9.73-9.73h0c0-5.37-4.36-9.73-9.73-9.73h0Z"/>
    <path class="cls-3" d="M134.35,635.48h0c-5.37,0-9.73,4.36-9.73,9.73h0c0,5.37,4.36,9.73,9.73,9.73h0c5.37,0,9.73-4.36,9.73-9.73h0c0-5.37-4.36-9.73-9.73-9.73h0Z"/>
    <path class="cls-3" d="M309.92,635.48h0c-5.37,0-9.73,4.36-9.73,9.73h0c0,5.37,4.36,9.73,9.73,9.73h0c5.37,0,9.73-4.36,9.73-9.73h0c0-5.37-4.36-9.73-9.73-9.73h0Z"/>
    <path class="cls-3" d="M485.5,635.48h0c-5.37,0-9.73,4.36-9.73,9.73h0c0,5.37,4.36,9.73,9.73,9.73h0c5.37,0,9.73-4.36,9.73-9.73h0c0-5.37-4.36-9.73-9.73-9.73h0Z"/>
    <path class="cls-3" d="M661.07,635.48h0c-5.37,0-9.73,4.36-9.73,9.73h0c0,5.37,4.36,9.73,9.73,9.73h0c5.37,0,9.73-4.36,9.73-9.73h0c0-5.37-4.36-9.73-9.73-9.73h0Z"/>
    <path class="cls-3" d="M836.64,635.48h0c-5.37,0-9.73,4.36-9.73,9.73h0c0,5.37,4.36,9.73,9.73,9.73h0c5.37,0,9.73-4.36,9.73-9.73h0c0-5.37-4.36-9.73-9.73-9.73h0Z"/>
    <path class="cls-3" d="M1012.21,635.48h0c-5.37,0-9.73,4.36-9.73,9.73h0c0,5.37,4.36,9.73,9.73,9.73h0c5.37,0,9.73-4.36,9.73-9.73h0c0-5.37-4.36-9.73-9.73-9.73h0Z"/>
    <path class="cls-3" d="M1187.79,635.48h0c-5.37,0-9.73,4.36-9.73,9.73h0c0,5.37,4.36,9.73,9.73,9.73h0c5.37,0,9.73-4.36,9.73-9.73h0c0-5.37-4.36-9.73-9.73-9.73h0Z"/>
    <path class="cls-3" d="M1363.36,635.48h0c-5.37,0-9.73,4.36-9.73,9.73h0c0,5.37,4.36,9.73,9.73,9.73h0c5.37,0,9.73-4.36,9.73-9.73h0c0-5.37-4.36-9.73-9.73-9.73h0Z"/>
    <path class="cls-3" d="M1538.93,635.48h0c-5.37,0-9.73,4.36-9.73,9.73h0c0,5.37,4.36,9.73,9.73,9.73h0c5.37,0,9.73-4.36,9.73-9.73h0c0-5.37-4.36-9.73-9.73-9.73h0Z"/>
    <path class="cls-3" d="M1714.5,635.48h0c-5.37,0-9.73,4.36-9.73,9.73h0c0,5.37,4.36,9.73,9.73,9.73h0c5.37,0,9.73-4.36,9.73-9.73h0c0-5.37-4.36-9.73-9.73-9.73h0Z"/>
    <path class="cls-3" d="M1890.08,635.48h0c-5.37,0-9.73,4.36-9.73,9.73h0c0,5.37,4.36,9.73,9.73,9.73h0c5.37,0,9.73-4.36,9.73-9.73h0c0-5.37-4.36-9.73-9.73-9.73h0Z"/>
    <path class="cls-3" d="M2065.65,635.48h0c-5.37,0-9.73,4.36-9.73,9.73h0c0,5.37,4.36,9.73,9.73,9.73h0c5.37,0,9.73-4.36,9.73-9.73h0c0-5.37-4.36-9.73-9.73-9.73h0Z"/>
    <path class="cls-3" d="M134.35,811.06h0c-5.37,0-9.73,4.36-9.73,9.73h0c0,5.37,4.36,9.73,9.73,9.73h0c5.37,0,9.73-4.36,9.73-9.73h0c0-5.37-4.36-9.73-9.73-9.73h0Z"/>
    <path class="cls-3" d="M309.92,811.06h0c-5.37,0-9.73,4.36-9.73,9.73h0c0,5.37,4.36,9.73,9.73,9.73h0c5.37,0,9.73-4.36,9.73-9.73h0c0-5.37-4.36-9.73-9.73-9.73h0Z"/>
    <path class="cls-3" d="M485.5,811.06h0c-5.37,0-9.73,4.36-9.73,9.73h0c0,5.37,4.36,9.73,9.73,9.73h0c5.37,0,9.73-4.36,9.73-9.73h0c0-5.37-4.36-9.73-9.73-9.73h0Z"/>
    <path class="cls-3" d="M661.07,811.06h0c-5.37,0-9.73,4.36-9.73,9.73h0c0,5.37,4.36,9.73,9.73,9.73h0c5.37,0,9.73-4.36,9.73-9.73h0c0-5.37-4.36-9.73-9.73-9.73h0Z"/>
    <path class="cls-3" d="M836.64,811.06h0c-5.37,0-9.73,4.36-9.73,9.73h0c0,5.37,4.36,9.73,9.73,9.73h0c5.37,0,9.73-4.36,9.73-9.73h0c0-5.37-4.36-9.73-9.73-9.73h0Z"/>
    <path class="cls-3" d="M1012.21,811.06h0c-5.37,0-9.73,4.36-9.73,9.73h0c0,5.37,4.36,9.73,9.73,9.73h0c5.37,0,9.73-4.36,9.73-9.73h0c0-5.37-4.36-9.73-9.73-9.73h0Z"/>
    <path class="cls-3" d="M1187.79,811.06h0c-5.37,0-9.73,4.36-9.73,9.73h0c0,5.37,4.36,9.73,9.73,9.73h0c5.37,0,9.73-4.36,9.73-9.73h0c0-5.37-4.36-9.73-9.73-9.73h0Z"/>
    <path class="cls-3" d="M1363.36,811.06h0c-5.37,0-9.73,4.36-9.73,9.73h0c0,5.37,4.36,9.73,9.73,9.73h0c5.37,0,9.73-4.36,9.73-9.73h0c0-5.37-4.36-9.73-9.73-9.73h0Z"/>
    <path class="cls-3" d="M1538.93,811.06h0c-5.37,0-9.73,4.36-9.73,9.73h0c0,5.37,4.36,9.73,9.73,9.73h0c5.37,0,9.73-4.36,9.73-9.73h0c0-5.37-4.36-9.73-9.73-9.73h0Z"/>
    <path class="cls-3" d="M1714.5,811.06h0c-5.37,0-9.73,4.36-9.73,9.73h0c0,5.37,4.36,9.73,9.73,9.73h0c5.37,0,9.73-4.36,9.73-9.73h0c0-5.37-4.36-9.73-9.73-9.73h0Z"/>
    <path class="cls-3" d="M1890.08,811.06h0c-5.37,0-9.73,4.36-9.73,9.73h0c0,5.37,4.36,9.73,9.73,9.73h0c5.37,0,9.73-4.36,9.73-9.73h0c0-5.37-4.36-9.73-9.73-9.73h0Z"/>
    <path class="cls-3" d="M2065.65,811.06h0c-5.37,0-9.73,4.36-9.73,9.73h0c0,5.37,4.36,9.73,9.73,9.73h0c5.37,0,9.73-4.36,9.73-9.73h0c0-5.37-4.36-9.73-9.73-9.73h0Z"/>
    <path class="cls-3" d="M134.35,986.63h0c-5.37,0-9.73,4.36-9.73,9.73h0c0,5.37,4.36,9.73,9.73,9.73h0c5.37,0,9.73-4.36,9.73-9.73h0c0-5.37-4.36-9.73-9.73-9.73h0Z"/>
    <path class="cls-3" d="M309.92,986.63h0c-5.37,0-9.73,4.36-9.73,9.73h0c0,5.37,4.36,9.73,9.73,9.73h0c5.37,0,9.73-4.36,9.73-9.73h0c0-5.37-4.36-9.73-9.73-9.73h0Z"/>
    <path class="cls-3" d="M485.5,986.63h0c-5.37,0-9.73,4.36-9.73,9.73h0c0,5.37,4.36,9.73,9.73,9.73h0c5.37,0,9.73-4.36,9.73-9.73h0c0-5.37-4.36-9.73-9.73-9.73h0Z"/>
    <path class="cls-3" d="M661.07,986.63h0c-5.37,0-9.73,4.36-9.73,9.73h0c0,5.37,4.36,9.73,9.73,9.73h0c5.37,0,9.73-4.36,9.73-9.73h0c0-5.37-4.36-9.73-9.73-9.73h0Z"/>
    <path class="cls-3" d="M836.64,986.63h0c-5.37,0-9.73,4.36-9.73,9.73h0c0,5.37,4.36,9.73,9.73,9.73h0c5.37,0,9.73-4.36,9.73-9.73h0c0-5.37-4.36-9.73-9.73-9.73h0Z"/>
    <path class="cls-3" d="M1012.21,986.63h0c-5.37,0-9.73,4.36-9.73,9.73h0c0,5.37,4.36,9.73,9.73,9.73h0c5.37,0,9.73-4.36,9.73-9.73h0c0-5.37-4.36-9.73-9.73-9.73h0Z"/>
    <path class="cls-3" d="M1187.79,986.63h0c-5.37,0-9.73,4.36-9.73,9.73h0c0,5.37,4.36,9.73,9.73,9.73h0c5.37,0,9.73-4.36,9.73-9.73h0c0-5.37-4.36-9.73-9.73-9.73h0Z"/>
    <path class="cls-3" d="M1363.36,986.63h0c-5.37,0-9.73,4.36-9.73,9.73h0c0,5.37,4.36,9.73,9.73,9.73h0c5.37,0,9.73-4.36,9.73-9.73h0c0-5.37-4.36-9.73-9.73-9.73h0Z"/>
    <path class="cls-3" d="M1538.93,986.63h0c-5.37,0-9.73,4.36-9.73,9.73h0c0,5.37,4.36,9.73,9.73,9.73h0c5.37,0,9.73-4.36,9.73-9.73h0c0-5.37-4.36-9.73-9.73-9.73h0Z"/>
    <path class="cls-3" d="M1714.5,986.63h0c-5.37,0-9.73,4.36-9.73,9.73h0c0,5.37,4.36,9.73,9.73,9.73h0c5.37,0,9.73-4.36,9.73-9.73h0c0-5.37-4.36-9.73-9.73-9.73h0Z"/>
    <path class="cls-3" d="M1890.08,986.63h0c-5.37,0-9.73,4.36-9.73,9.73h0c0,5.37,4.36,9.73,9.73,9.73h0c5.37,0,9.73-4.36,9.73-9.73h0c0-5.37-4.36-9.73-9.73-9.73h0Z"/>
    <path class="cls-3" d="M2065.65,986.63h0c-5.37,0-9.73,4.36-9.73,9.73h0c0,5.37,4.36,9.73,9.73,9.73h0c5.37,0,9.73-4.36,9.73-9.73h0c0-5.37-4.36-9.73-9.73-9.73h0Z"/>
    <path class="cls-3" d="M134.35,1162.2h0c-5.37,0-9.73,4.36-9.73,9.73h0c0,5.37,4.36,9.73,9.73,9.73h0c5.37,0,9.73-4.36,9.73-9.73h0c0-5.37-4.36-9.73-9.73-9.73h0Z"/>
    <path class="cls-3" d="M309.92,1162.2h0c-5.37,0-9.73,4.36-9.73,9.73h0c0,5.37,4.36,9.73,9.73,9.73h0c5.37,0,9.73-4.36,9.73-9.73h0c0-5.37-4.36-9.73-9.73-9.73h0Z"/>
    <path class="cls-3" d="M485.5,1162.2h0c-5.37,0-9.73,4.36-9.73,9.73h0c0,5.37,4.36,9.73,9.73,9.73h0c5.37,0,9.73-4.36,9.73-9.73h0c0-5.37-4.36-9.73-9.73-9.73h0Z"/>
    <path class="cls-3" d="M661.07,1162.2h0c-5.37,0-9.73,4.36-9.73,9.73h0c0,5.37,4.36,9.73,9.73,9.73h0c5.37,0,9.73-4.36,9.73-9.73h0c0-5.37-4.36-9.73-9.73-9.73h0Z"/>
    <path class="cls-3" d="M836.64,1162.2h0c-5.37,0-9.73,4.36-9.73,9.73h0c0,5.37,4.36,9.73,9.73,9.73h0c5.37,0,9.73-4.36,9.73-9.73h0c0-5.37-4.36-9.73-9.73-9.73h0Z"/>
    <path class="cls-3" d="M1012.21,1162.2h0c-5.37,0-9.73,4.36-9.73,9.73h0c0,5.37,4.36,9.73,9.73,9.73h0c5.37,0,9.73-4.36,9.73-9.73h0c0-5.37-4.36-9.73-9.73-9.73h0Z"/>
    <path class="cls-3" d="M1187.79,1162.2h0c-5.37,0-9.73,4.36-9.73,9.73h0c0,5.37,4.36,9.73,9.73,9.73h0c5.37,0,9.73-4.36,9.73-9.73h0c0-5.37-4.36-9.73-9.73-9.73h0Z"/>
    <path class="cls-3" d="M1363.36,1162.2h0c-5.37,0-9.73,4.36-9.73,9.73h0c0,5.37,4.36,9.73,9.73,9.73h0c5.37,0,9.73-4.36,9.73-9.73h0c0-5.37-4.36-9.73-9.73-9.73h0Z"/>
    <path class="cls-3" d="M1538.93,1162.2h0c-5.37,0-9.73,4.36-9.73,9.73h0c0,5.37,4.36,9.73,9.73,9.73h0c5.37,0,9.73-4.36,9.73-9.73h0c0-5.37-4.36-9.73-9.73-9.73h0Z"/>
    <path class="cls-3" d="M1714.5,1162.2h0c-5.37,0-9.73,4.36-9.73,9.73h0c0,5.37,4.36,9.73,9.73,9.73h0c5.37,0,9.73-4.36,9.73-9.73h0c0-5.37-4.36-9.73-9.73-9.73h0Z"/>
    <path class="cls-3" d="M1890.08,1162.2h0c-5.37,0-9.73,4.36-9.73,9.73h0c0,5.37,4.36,9.73,9.73,9.73h0c5.37,0,9.73-4.36,9.73-9.73h0c0-5.37-4.36-9.73-9.73-9.73h0Z"/>
    <path class="cls-3" d="M2065.65,1162.2h0c-5.37,0-9.73,4.36-9.73,9.73h0c0,5.37,4.36,9.73,9.73,9.73h0c5.37,0,9.73-4.36,9.73-9.73h0c0-5.37-4.36-9.73-9.73-9.73h0Z"/>
    <path class="cls-3" d="M134.35,1337.78h0c-5.37,0-9.73,4.36-9.73,9.73h0c0,5.37,4.36,9.73,9.73,9.73h0c5.37,0,9.73-4.36,9.73-9.73h0c0-5.37-4.36-9.73-9.73-9.73h0Z"/>
    <path class="cls-3" d="M309.92,1337.78h0c-5.37,0-9.73,4.36-9.73,9.73h0c0,5.37,4.36,9.73,9.73,9.73h0c5.37,0,9.73-4.36,9.73-9.73h0c0-5.37-4.36-9.73-9.73-9.73h0Z"/>
    <path class="cls-3" d="M485.5,1337.78h0c-5.37,0-9.73,4.36-9.73,9.73h0c0,5.37,4.36,9.73,9.73,9.73h0c5.37,0,9.73-4.36,9.73-9.73h0c0-5.37-4.36-9.73-9.73-9.73h0Z"/>
    <path class="cls-3" d="M661.07,1337.78h0c-5.37,0-9.73,4.36-9.73,9.73h0c0,5.37,4.36,9.73,9.73,9.73h0c5.37,0,9.73-4.36,9.73-9.73h0c0-5.37-4.36-9.73-9.73-9.73h0Z"/>
    <path class="cls-3" d="M836.64,1337.78h0c-5.37,0-9.73,4.36-9.73,9.73h0c0,5.37,4.36,9.73,9.73,9.73h0c5.37,0,9.73-4.36,9.73-9.73h0c0-5.37-4.36-9.73-9.73-9.73h0Z"/>
    <path class="cls-3" d="M1012.21,1337.78h0c-5.37,0-9.73,4.36-9.73,9.73h0c0,5.37,4.36,9.73,9.73,9.73h0c5.37,0,9.73-4.36,9.73-9.73h0c0-5.37-4.36-9.73-9.73-9.73h0Z"/>
    <path class="cls-3" d="M1187.79,1337.78h0c-5.37,0-9.73,4.36-9.73,9.73h0c0,5.37,4.36,9.73,9.73,9.73h0c5.37,0,9.73-4.36,9.73-9.73h0c0-5.37-4.36-9.73-9.73-9.73h0Z"/>
    <path class="cls-3" d="M1363.36,1337.78h0c-5.37,0-9.73,4.36-9.73,9.73h0c0,5.37,4.36,9.73,9.73,9.73h0c5.37,0,9.73-4.36,9.73-9.73h0c0-5.37-4.36-9.73-9.73-9.73h0Z"/>
    <path class="cls-3" d="M1538.93,1337.78h0c-5.37,0-9.73,4.36-9.73,9.73h0c0,5.37,4.36,9.73,9.73,9.73h0c5.37,0,9.73-4.36,9.73-9.73h0c0-5.37-4.36-9.73-9.73-9.73h0Z"/>
    <path class="cls-3" d="M1714.5,1337.78h0c-5.37,0-9.73,4.36-9.73,9.73h0c0,5.37,4.36,9.73,9.73,9.73h0c5.37,0,9.73-4.36,9.73-9.73h0c0-5.37-4.36-9.73-9.73-9.73h0Z"/>
    <path class="cls-3" d="M1890.08,1337.78h0c-5.37,0-9.73,4.36-9.73,9.73h0c0,5.37,4.36,9.73,9.73,9.73h0c5.37,0,9.73-4.36,9.73-9.73h0c0-5.37-4.36-9.73-9.73-9.73h0Z"/>
    <path class="cls-3" d="M2065.65,1337.78h0c-5.37,0-9.73,4.36-9.73,9.73h0c0,5.37,4.36,9.73,9.73,9.73h0c5.37,0,9.73-4.36,9.73-9.73h0c0-5.37-4.36-9.73-9.73-9.73h0Z"/>
  </g>
</svg>