<?xml version="1.0" encoding="UTF-8"?>
<svg id="Layer_2" data-name="Layer 2" xmlns="http://www.w3.org/2000/svg" viewBox="0 0 263.78 298.89">
  <defs>
    <style>
      .cls-1 {
        fill: #f6e19e;
      }
    </style>
  </defs>
  <g id="Layer_1-2" data-name="Layer 1">
    <g>
      <path class="cls-1" d="M223.88,298.24c-.02.22-.05.44-.08.65l-.58-1.06c.22.14.44.27.66.41Z"/>
      <g>
        <path class="cls-1" d="M223.22,297.83l.58,1.06c.03-.21.06-.43.08-.65-.22-.14-.44-.27-.66-.41Z"/>
        <polygon class="cls-1" points="37.94 61.8 37.74 62.15 37.55 61.8 37.94 61.8"/>
        <path class="cls-1" d="M45.48,255.99h17.9l-2.96,5.37c-3.61,6.56-10.51,10.63-17.99,10.63H0l2.96-5.37c3.61-6.56,10.51-10.63,17.99-10.63h24.4l.13-.24v.24Z"/>
        <polygon class="cls-1" points="46.36 77.8 29.48 77.8 29.48 77.14 37.74 62.15 45.48 76.19 46.36 77.8"/>
        <polygon class="cls-1" points="144.86 24.53 118.38 24.53 118.38 23.52 131.34 0 143.48 22.02 144.86 24.53"/>
        <polygon class="cls-1" points="46.38 77.82 46.36 77.8 46.39 77.8 46.38 77.82"/>
        <path class="cls-1" d="M34.09,109.8H11.49l2.58-4.67c3.85-6.99,11.2-11.33,19.18-11.33h22.6l-.33.6-2.25,4.07c-3.85,6.99-11.2,11.33-19.18,11.33Z"/>
        <path class="cls-1" d="M71.78,208.04l-8.8,15.96h.7s-.03.02-.04.04h-.68l-1.01,1.83h-.01s-.03.05-.04.07l-.02.02-2.03,3.7c-3.51,6.38-10.21,10.34-17.49,10.34h-6.46l7.47-13.57h-.02s1.31-2.39,1.31-2.39H2.04c0-8.84,7.16-16,16-16h11.44v-71.12c0-9.96,12.03-14.97,19.1-7.95l12.8,12.71c3.99,3.96,4.87,10.09,2.16,15.02l-3.44,6.25-14.04-13.94c-.21-.21-.57-.06-.57.24v58.79h26.3Z"/>
        <path class="cls-1" d="M190.47,271.99h0s-117.64,0-117.64,0h0c5.44-9.87,15.82-16,27.09-16h63.46c11.27,0,21.65,6.13,27.09,16Z"/>
        <path class="cls-1" d="M98.52,40.63h0s66.27,0,66.27,0h0c-3.06,9.87-8.91,16-15.26,16h-35.75c-6.35,0-12.2-6.13-15.26-16Z"/>
        <path class="cls-1" d="M263.78,271.99h-41.56c-8.16,0-15.68-4.44-19.62-11.59l-2.43-4.41h41.56c8.16,0,15.68,4.44,19.62,11.59l2.43,4.41Z"/>
        <polygon class="cls-1" points="233.42 77.8 215.53 77.8 215.84 77.22 224.35 61.8 224.48 61.57 224.61 61.8 233.42 77.8"/>
        <path class="cls-1" d="M228.07,109.8c-7.74,0-14.87-4.21-18.6-10.99l-2.76-5h0s22.99-.01,22.99-.01c7.74,0,14.86,4.21,18.6,10.98l2.76,5.02h-22.99Z"/>
        <path class="cls-1" d="M254.92,143.29v66.92c0,7.64-6.19,13.83-13.83,13.83-1.15,0-2.26-.32-3.22-.88-.96-.57-1.77-1.39-2.32-2.4l-7.01-12.72h3.77c3.65,0,6.61-2.96,6.61-6.61v-52.82c0-3.65-2.96-6.61-6.61-6.61h-92.99v66.04h18.47c9.68,0,18.59,5.26,23.27,13.74l1.22,2.22h.24l.03.04h-101.56l.02-.04,1.22-2.22c4.68-8.48,13.59-13.74,23.27-13.74l-7.18-7.14h0c-1.07-1.06-1.63-2.47-1.63-3.91,0-.91.23-1.82.69-2.66l6.02-10.93.15.15,2.43,2.41,9.23,9.17.98.98h.01l7.13,7.08v-61.19h-15.16l-4.07,7.38h.01s-9.14,16.6-9.14,16.6v-.02s-3.24,5.85-3.24,5.85v.02s-8.02,14.56-8.02,14.56h-.01s-3.12,5.65-3.12,5.65h-18.27l9.58-17.39,8.03-14.57,5.9-10.7,9.14-16.59,3.85-6.99,5.55-10.07,3.27-5.93,5.86-10.64.12-.22,2.83-5.14,5.39-9.76.92-1.68,2.51-4.56.84-1.51c2.51-4.56,9.07-4.56,11.58,0l.83,1.51.82,1.48,1.7,3.08v.02s.92,1.67.92,1.67h.01l5.37,9.75,2.72,4.94.12.22h0c.63,1.15.92,2.35.92,3.53,0,3.82-3.06,7.31-7.32,7.31h-5.9l-5.09-9.24c-.38-.69-1.38-.69-1.76,0l-5.09,9.24-2.6,4.71-.57,1.03-.12.22-5.49,9.96h120.21c9.7,0,17.57,7.87,17.57,17.57Z"/>
        <path class="cls-1" d="M200.79,223.99l-8.79-15.96-24.12-43.77-3.46-6.27h9.02c5.71,0,10.98,3.11,13.74,8.11l23.1,41.93h.01l8.79,15.96.02.04,8.8,15.96h-6.5c-7.27,0-13.96-3.95-17.47-10.32h0s-3.1-5.64-3.1-5.64h0l-.02-.04Z"/>
      </g>
      <path class="cls-1" d="M223.22,297.83l.58,1.06c.03-.21.06-.43.08-.65-.22-.14-.44-.27-.66-.41Z"/>
    </g>
  </g>
</svg>