<?xml version="1.0" encoding="UTF-8"?>
<svg id="Layer_2" data-name="Layer 2" xmlns="http://www.w3.org/2000/svg" viewBox="0 0 143.19 190.48">
  <defs>
    <style>
      .cls-1 {
        fill: #fbdf9c;
      }
    </style>
  </defs>
  <g id="Layer_1-2" data-name="Layer 1">
    <g>
      <path class="cls-1" d="m106.87,135.33l.04.07H36.29h0c2.43-4.46,7.11-7.24,12.19-7.24h46.24c5.05,0,9.7,2.75,12.15,7.17Z"/>
      <path class="cls-1" d="m51.04,19.44l-.02-.07h41.17,0c-1.42,4.46-4.14,7.24-7.1,7.24h-26.96c-2.94,0-5.66-2.75-7.08-7.17Z"/>
      <path class="cls-1" d="m71.6,0l-7.42,12.85c-.35.6.09,1.36.78,1.36h13.26c.7,0,1.13-.76.78-1.36l-7.42-12.85Z"/>
      <g>
        <g>
          <path class="cls-1" d="m35.91,105.51l-.71,1.28-3.26,5.95-2.8,5.12c-1.63,2.99-4.76,4.83-8.14,4.83h-4.74l1.86-3.42.43-.8,3.11-5.74H0c0-1.99.81-3.8,2.12-5.12,1.32-1.3,3.13-2.12,5.12-2.12h3.18c.81,0,1.47-.66,1.47-1.47v-47.48c0-2.55,1.39-4.25,4.27-4.25,1.03,0,2.1.38,2.97,1.25l14.15,14.13c2.55,2.55,3.11,6.46,1.41,9.63l-.71,1.32-13.44-13.44c-.51-.51-1.41-.14-1.41.6v38.33c0,.76.62,1.38,1.38,1.38h15.41Z"/>
          <path class="cls-1" d="m143.19,69.11v25.33c0,5.95-2.84,11.25-7.26,14.6-3.55,2.7-8.72,1.38-10.87-2.53l-.56-1h.38c6.12,0,11.07-4.96,11.07-11.07v-25.31c0-6.12-4.96-11.07-11.07-11.07h-48.9c-.36,0-.67.29-.67.67v44.53c0,1.25,1.01,2.26,2.26,2.26h19.41c2.91,0,5.59,1.59,7,4.14l1.7,3.09H38.2l1.65-3.04c.04-.07.09-.16.16-.24,1.41-2.44,4.03-3.96,6.88-3.96h13.97l-7.91-7.91c-2.48-2.48-3.04-6.3-1.36-9.39l.78-1.43,14.18,14.18c.56.56,1.52.16,1.52-.63v-41.61c0-.38-.31-.67-.67-.67h-3.35c-1.32,0-2.55.72-3.18,1.9l-8.94,16.34-.04-.02-7.16,13.12-3.04,5.57-.65,1.16c-1.34,2.42-3.87,3.93-6.64,3.93h-5.81l4.51-8.27.25-.49,4.69-8.59-.04-.04,3.6-6.64.04.04,9.79-18,1.05-1.92,5.86-10.78,4.52-8.32c3.82-7,13.86-7.02,17.69-.04l4.6,8.36h-7.33c-1.94,0-3.73-1.05-4.67-2.75l-.56-1.03c-.38-.65-1.32-.65-1.68.02l-.54,1-4.51,8.23h59.04c10.1,0,18.29,8.18,18.29,18.29Z"/>
          <path class="cls-1" d="m127.72,122.7h-4.81c-3.06,0-5.9-1.5-7.6-4-.2-.25-.36-.52-.51-.8l-2.86-5.16h-.02l-4.67-8.45v-.02s-.02-.05-.04-.09l-8.16-14.75-4.32-7.82-10.01-18.11h5.97c2.75,0,5.26,1.5,6.6,3.91l12.14,22.07,8.81,16.01,3.98,7.24,1.95,3.53,3.53,6.42Z"/>
        </g>
        <path class="cls-1" d="m7.24,128.16h26.43s0,0,0,0c-2.43,4.46-7.11,7.24-12.19,7.24H0c0-4,3.24-7.24,7.24-7.24Z"/>
        <path class="cls-1" d="m143.19,135.4h0s-22.19,0-22.19,0c-5.05,0-9.7-2.75-12.15-7.17l-.04-.07h27.14c4,0,7.24,3.24,7.24,7.24Z"/>
        <path class="cls-1" d="m7.24,38.11h26.43s0,0,0,0c-2.43,4.46-7.11,7.24-12.19,7.24H0c0-4,3.24-7.24,7.24-7.24Z"/>
        <path class="cls-1" d="m143.19,45.35h0s-22.19,0-22.19,0c-5.05,0-9.7-2.75-12.15-7.17l-.04-.07h27.14c4,0,7.24,3.24,7.24,7.24Z"/>
        <path class="cls-1" d="m15.25,22.1l-5.48,9.5c-.27.47.07,1.05.6,1.05h9.76c.54,0,.87-.58.6-1.05l-5.48-9.5Z"/>
        <path class="cls-1" d="m127.72,22.1l-5.48,9.5c-.27.47.07,1.05.6,1.05h9.76c.54,0,.87-.58.6-1.05l-5.48-9.5Z"/>
      </g>
      <path class="cls-1" d="m77.77,190.34s-.04.08-.07.12c.18,0,.38.01.57.03-.17-.04-.34-.09-.5-.15Zm8.18.03c-.13.05-.28.09-.41.12.16,0,.3-.01.46-.03-.03-.03-.04-.05-.05-.09Z"/>
      <path class="cls-1" d="m118.26,145.08l-.69.74-.9-.46c-4.23-2.18-8.83-3.29-13.67-3.29s-9.3,1.08-13.52,3.2l-.63.32-.61-.34c-5.04-2.85-10.78-4.36-16.64-4.36s-11.66,1.52-16.71,4.39l-.61.36-.63-.33c-4.2-2.14-8.78-3.22-13.56-3.22s-9.38,1.1-13.61,3.25l-.89.45-.67-.73c-2.1-2.26-4.94-3.7-7.97-4.07.52,2.89,1.26,5.74,2.22,8.49,1.11,3.16,2.52,6.25,4.22,9.21,1.77,3.11,3.89,6.09,6.3,8.86,1.69,1.96,3.54,3.81,5.5,5.5.63.57,1.3,1.11,1.97,1.65,3.15,2.5,6.57,4.64,10.15,6.37.45.22.96.48,1.48.7,2.83,1.27,5.75,2.31,8.71,3.08,2.91.77,5.92,1.3,9,1.59l.13-.4,1.26.42c.09.03.19.07.28.09,1.14.07,2.29.11,3.44.11s2.31-.04,3.45-.11c.04-.01.07-.03.11-.04l1.3-.52.15.44c3.05-.26,6.08-.79,9.01-1.56,2.96-.77,5.91-1.81,8.78-3.09.49-.22.95-.44,1.41-.67,3.57-1.72,7.01-3.87,10.24-6.42,2.68-2.13,5.18-4.51,7.4-7.06,2.38-2.72,4.51-5.71,6.32-8.87,1.69-2.93,3.12-6.04,4.23-9.21.98-2.78,1.73-5.64,2.25-8.55-3.04.38-5.88,1.82-7.98,4.11Zm-77.89,16.38l-.81.04c-1.02.04-2.01.24-2.97.57l-.86.3-.58-.7c-2.27-2.7-4.23-5.62-5.82-8.68l-.62-1.2,1.22-.6c3.19-1.55,6.6-2.34,10.16-2.34,2.02,0,4.03.26,5.95.77l2.13.57-1.51,1.61c-2.46,2.64-4.47,5.64-5.96,8.92l-.33.74Zm56.24,10.12c-1.6,1-3.29,1.93-5.05,2.74-1.93.9-3.98,1.68-6.09,2.33l-1.85.56.15-1.92c.01-.15.01-.29.01-.44,0-2.91-1.04-5.72-2.93-7.92-1.94-2.29-4.64-3.75-7.59-4.15-.53-.08-1.07-.12-1.65-.12-.63,0-1.19.04-1.69.13-3,.41-5.7,1.9-7.63,4.2-1.85,2.19-2.87,4.98-2.87,7.85,0,.13,0,.28.01.41l.15,1.93-1.85-.56c-2.14-.65-4.22-1.44-6.2-2.38-1.65-.75-3.32-1.65-4.94-2.67l-.75-.48.16-.89c.4-2.22,1.08-4.39,2.05-6.42,1.52-3.25,3.67-6.12,6.38-8.5,2.6-2.29,5.59-4.02,8.87-5.13,2.64-.9,5.45-1.36,8.31-1.36s5.56.45,8.23,1.33c3.28,1.1,6.26,2.82,8.88,5.11,2.71,2.35,4.86,5.21,6.41,8.47.98,2.04,1.68,4.22,2.08,6.5l.16.87-.75.48Zm17.22-18.57c-1.59,3.07-3.53,5.99-5.8,8.68l-.59.7-.86-.3c-.96-.34-1.96-.54-2.96-.59l-.79-.05-.33-.71c-1.51-3.29-3.52-6.29-5.97-8.95l-1.49-1.6,2.11-.58c1.86-.5,3.83-.75,5.87-.75,3.58,0,7.03.79,10.23,2.37l1.22.6-.62,1.2Z"/>
    </g>
  </g>
</svg>